<svg version="1.0" preserveAspectRatio="xMidYMid meet" height="105" viewBox="0 0 270 78.749999" zoomAndPan="magnify" width="360" xmlns:xlink="http://www.w3.org/1999/xlink" xmlns="http://www.w3.org/2000/svg"><defs><g></g><clipPath id="50d77c6f34"><path clip-rule="nonzero" d="M 38 33.410156 L 41 33.410156 L 41 39 L 38 39 Z M 38 33.410156"></path></clipPath><clipPath id="5a3cd13b7d"><path clip-rule="nonzero" d="M 32.273438 38 L 35 38 L 35 42.378906 L 32.273438 42.378906 Z M 32.273438 38"></path></clipPath><clipPath id="f89cbadc87"><path clip-rule="nonzero" d="M 42 38 L 44.234375 38 L 44.234375 42 L 42 42 Z M 42 38"></path></clipPath><clipPath id="58e0f04bf7"><path clip-rule="nonzero" d="M 8.59375 32.628906 L 17.566406 32.628906 L 17.566406 52.066406 L 8.59375 52.066406 Z M 8.59375 32.628906"></path></clipPath><clipPath id="133414c973"><path clip-rule="nonzero" d="M 14 26.292969 L 27 26.292969 L 27 32 L 14 32 Z M 14 26.292969"></path></clipPath><clipPath id="f5cc1358e8"><path clip-rule="nonzero" d="M 8.277344 34 L 32.949219 34 L 32.949219 52.460938 L 8.277344 52.460938 Z M 8.277344 34"></path></clipPath><clipPath id="90336e1473"><path clip-rule="nonzero" d="M 13.664062 17.832031 L 27.871094 17.832031 L 27.871094 27.554688 L 13.664062 27.554688 Z M 13.664062 17.832031"></path></clipPath></defs><g fill-opacity="1" fill="#ffbd59"><g transform="translate(41.905047, 51.287951)"><g><path d="M 7.953125 -22.421875 C 6.472656 -21.898438 5.34375 -21.078125 4.5625 -19.953125 C 3.789062 -18.828125 3.40625 -17.46875 3.40625 -15.875 C 3.40625 -15.175781 3.476562 -14.535156 3.625 -13.953125 C 3.78125 -13.378906 4 -12.90625 4.28125 -12.53125 C 2.882812 -12.53125 1.851562 -12.816406 1.1875 -13.390625 C 0.53125 -13.972656 0.203125 -14.867188 0.203125 -16.078125 C 0.203125 -17.597656 0.644531 -19.019531 1.53125 -20.34375 C 2.425781 -21.664062 3.640625 -22.71875 5.171875 -23.5 C 6.703125 -24.289062 8.359375 -24.6875 10.140625 -24.6875 C 10.648438 -24.6875 11.085938 -24.648438 11.453125 -24.578125 C 11.828125 -24.515625 12.253906 -24.394531 12.734375 -24.21875 L 16.65625 -6.703125 L 20.328125 -24.484375 L 23.5 -24.484375 L 18.171875 0 L 13.65625 0 L 9.859375 -16.234375 L 6.125 0 L 3.015625 0 Z M 7.953125 -22.421875"></path></g></g></g><g fill-opacity="1" fill="#ffbd59"><g transform="translate(63.767368, 51.287951)"><g><path d="M 3.234375 0.203125 C 2.191406 0.203125 1.347656 -0.125 0.703125 -0.78125 C 0.0546875 -1.4375 -0.265625 -2.421875 -0.265625 -3.734375 C -0.265625 -4.273438 -0.175781 -4.984375 0 -5.859375 L 2.21875 -16.375 L 6.9375 -16.375 L 4.578125 -5.234375 C 4.515625 -4.910156 4.484375 -4.609375 4.484375 -4.328125 C 4.484375 -3.429688 4.8125 -2.984375 5.46875 -2.984375 C 6.082031 -2.984375 6.601562 -3.238281 7.03125 -3.75 C 7.46875 -4.257812 7.816406 -4.960938 8.078125 -5.859375 L 10.3125 -16.375 L 15.03125 -16.375 L 12.671875 -5.234375 C 12.578125 -4.910156 12.53125 -4.5625 12.53125 -4.1875 C 12.53125 -3.75 12.632812 -3.4375 12.84375 -3.25 C 13.050781 -3.070312 13.394531 -2.984375 13.875 -2.984375 C 14.488281 -2.984375 15.019531 -3.242188 15.46875 -3.765625 C 15.914062 -4.285156 16.269531 -4.984375 16.53125 -5.859375 L 17.90625 -5.859375 C 17.09375 -3.503906 16.09375 -1.90625 14.90625 -1.0625 C 13.71875 -0.21875 12.523438 0.203125 11.328125 0.203125 C 10.390625 0.203125 9.640625 -0.0546875 9.078125 -0.578125 C 8.523438 -1.109375 8.191406 -1.882812 8.078125 -2.90625 C 7.335938 -1.707031 6.554688 -0.890625 5.734375 -0.453125 C 4.921875 -0.015625 4.085938 0.203125 3.234375 0.203125 Z M 3.234375 0.203125"></path></g></g></g><g fill-opacity="1" fill="#ffbd59"><g transform="translate(80.295019, 51.287951)"><g><path d="M 3.921875 0.203125 C 2.679688 0.203125 1.644531 -0.222656 0.8125 -1.078125 C -0.0078125 -1.929688 -0.421875 -3.265625 -0.421875 -5.078125 C -0.421875 -6.691406 -0.101562 -8.382812 0.53125 -10.15625 C 1.175781 -11.9375 2.132812 -13.441406 3.40625 -14.671875 C 4.6875 -15.910156 6.210938 -16.53125 7.984375 -16.53125 C 8.878906 -16.53125 9.546875 -16.375 9.984375 -16.0625 C 10.421875 -15.757812 10.640625 -15.359375 10.640625 -14.859375 L 10.640625 -14.625 L 11 -16.375 L 15.71875 -16.375 L 13.359375 -5.234375 C 13.265625 -4.910156 13.21875 -4.5625 13.21875 -4.1875 C 13.21875 -3.25 13.664062 -2.78125 14.5625 -2.78125 C 15.175781 -2.78125 15.707031 -3.0625 16.15625 -3.625 C 16.601562 -4.195312 16.957031 -4.941406 17.21875 -5.859375 L 18.59375 -5.859375 C 17.78125 -3.503906 16.78125 -1.90625 15.59375 -1.0625 C 14.40625 -0.21875 13.210938 0.203125 12.015625 0.203125 C 11.097656 0.203125 10.359375 -0.0507812 9.796875 -0.5625 C 9.242188 -1.082031 8.914062 -1.832031 8.8125 -2.8125 C 8.175781 -1.914062 7.46875 -1.1875 6.6875 -0.625 C 5.914062 -0.0703125 4.992188 0.203125 3.921875 0.203125 Z M 6.0625 -2.984375 C 6.601562 -2.984375 7.140625 -3.238281 7.671875 -3.75 C 8.210938 -4.257812 8.578125 -4.960938 8.765625 -5.859375 L 10.34375 -13.25 C 10.34375 -13.539062 10.234375 -13.820312 10.015625 -14.09375 C 9.796875 -14.363281 9.457031 -14.5 9 -14.5 C 8.125 -14.5 7.335938 -13.988281 6.640625 -12.96875 C 5.941406 -11.957031 5.394531 -10.738281 5 -9.3125 C 4.613281 -7.882812 4.421875 -6.625 4.421875 -5.53125 C 4.421875 -4.4375 4.578125 -3.738281 4.890625 -3.4375 C 5.210938 -3.132812 5.601562 -2.984375 6.0625 -2.984375 Z M 6.0625 -2.984375"></path></g></g></g><g fill-opacity="1" fill="#ffbd59"><g transform="translate(97.509952, 51.287951)"><g><path d="M 5.46875 -18.140625 C 4.75 -18.140625 4.132812 -18.390625 3.625 -18.890625 C 3.125 -19.390625 2.875 -20 2.875 -20.71875 C 2.875 -21.4375 3.125 -22.050781 3.625 -22.5625 C 4.132812 -23.082031 4.75 -23.34375 5.46875 -23.34375 C 6.1875 -23.34375 6.800781 -23.082031 7.3125 -22.5625 C 7.820312 -22.050781 8.078125 -21.4375 8.078125 -20.71875 C 8.078125 -20 7.820312 -19.390625 7.3125 -18.890625 C 6.800781 -18.390625 6.1875 -18.140625 5.46875 -18.140625 Z M 3.234375 0.203125 C 2.191406 0.203125 1.347656 -0.125 0.703125 -0.78125 C 0.0546875 -1.4375 -0.265625 -2.421875 -0.265625 -3.734375 C -0.265625 -4.273438 -0.175781 -4.984375 0 -5.859375 L 2.21875 -16.375 L 6.9375 -16.375 L 4.578125 -5.234375 C 4.492188 -4.910156 4.453125 -4.5625 4.453125 -4.1875 C 4.453125 -3.75 4.554688 -3.4375 4.765625 -3.25 C 4.972656 -3.070312 5.316406 -2.984375 5.796875 -2.984375 C 6.429688 -2.984375 7.019531 -3.25 7.5625 -3.78125 C 8.101562 -4.3125 8.492188 -5.003906 8.734375 -5.859375 L 10.109375 -5.859375 C 9.304688 -3.503906 8.269531 -1.90625 7 -1.0625 C 5.738281 -0.21875 4.484375 0.203125 3.234375 0.203125 Z M 3.234375 0.203125"></path></g></g></g><g fill-opacity="1" fill="#ffbd59"><g transform="translate(106.248339, 51.287951)"><g><path d="M 19.90625 0.203125 C 18.570312 0.203125 17.59375 -0.148438 16.96875 -0.859375 C 16.351562 -1.578125 16.046875 -2.457031 16.046875 -3.5 C 16.046875 -3.957031 16.097656 -4.472656 16.203125 -5.046875 C 16.316406 -5.628906 16.429688 -6.191406 16.546875 -6.734375 C 16.671875 -7.285156 16.753906 -7.640625 16.796875 -7.796875 C 16.960938 -8.554688 17.125 -9.304688 17.28125 -10.046875 C 17.4375 -10.785156 17.515625 -11.382812 17.515625 -11.84375 C 17.515625 -12.957031 17.117188 -13.515625 16.328125 -13.515625 C 15.765625 -13.515625 15.265625 -13.234375 14.828125 -12.671875 C 14.390625 -12.117188 14.039062 -11.394531 13.78125 -10.5 L 11.5625 0 L 6.84375 0 L 9.234375 -11.296875 C 9.296875 -11.554688 9.328125 -11.828125 9.328125 -12.109375 C 9.328125 -13.066406 9 -13.546875 8.34375 -13.546875 C 7.738281 -13.546875 7.210938 -13.265625 6.765625 -12.703125 C 6.316406 -12.148438 5.960938 -11.414062 5.703125 -10.5 L 3.46875 0 L -1.25 0 L 2.21875 -16.375 L 6.9375 -16.375 L 6.578125 -14.671875 C 7.691406 -15.910156 9.023438 -16.53125 10.578125 -16.53125 C 12.492188 -16.53125 13.613281 -15.59375 13.9375 -13.71875 C 15.144531 -15.570312 16.664062 -16.5 18.5 -16.5 C 19.613281 -16.5 20.492188 -16.191406 21.140625 -15.578125 C 21.796875 -14.972656 22.125 -14.046875 22.125 -12.796875 C 22.125 -12.160156 22.046875 -11.457031 21.890625 -10.6875 C 21.742188 -9.914062 21.53125 -8.972656 21.25 -7.859375 C 21.070312 -7.179688 20.910156 -6.519531 20.765625 -5.875 C 20.628906 -5.226562 20.5625 -4.722656 20.5625 -4.359375 C 20.5625 -3.921875 20.65625 -3.582031 20.84375 -3.34375 C 21.039062 -3.101562 21.378906 -2.984375 21.859375 -2.984375 C 22.515625 -2.984375 23.039062 -3.21875 23.4375 -3.6875 C 23.832031 -4.15625 24.222656 -4.878906 24.609375 -5.859375 L 25.984375 -5.859375 C 25.179688 -3.460938 24.25 -1.851562 23.1875 -1.03125 C 22.132812 -0.207031 21.039062 0.203125 19.90625 0.203125 Z M 19.90625 0.203125"></path></g></g></g><g fill-opacity="1" fill="#ffbd59"><g transform="translate(130.859816, 51.287951)"><g><path d="M 3.734375 0.203125 C 2.679688 0.203125 1.796875 0 1.078125 -0.40625 C 0.359375 -0.8125 -0.171875 -1.335938 -0.515625 -1.984375 C -0.867188 -2.628906 -1.046875 -3.300781 -1.046875 -4 C -1.046875 -4.71875 -0.875 -5.34375 -0.53125 -5.875 C -0.195312 -6.40625 0.207031 -6.789062 0.6875 -7.03125 C 1.539062 -8.5625 2.28125 -10.109375 2.90625 -11.671875 C 3.539062 -13.234375 4.144531 -14.921875 4.71875 -16.734375 L 9.5625 -17.375 C 9.664062 -14.582031 9.847656 -11.5625 10.109375 -8.3125 C 10.222656 -7 10.28125 -6.050781 10.28125 -5.46875 C 10.28125 -4.96875 10.234375 -4.550781 10.140625 -4.21875 C 11.171875 -4.8125 11.957031 -5.359375 12.5 -5.859375 L 13.875 -5.859375 C 12.476562 -4.242188 10.8125 -2.878906 8.875 -1.765625 C 8.238281 -1.085938 7.457031 -0.585938 6.53125 -0.265625 C 5.601562 0.046875 4.671875 0.203125 3.734375 0.203125 Z M 2.6875 -2.390625 C 3.488281 -2.390625 4.160156 -2.628906 4.703125 -3.109375 C 5.253906 -3.585938 5.53125 -4.363281 5.53125 -5.4375 C 5.53125 -6.09375 5.460938 -7.007812 5.328125 -8.1875 C 5.117188 -10.675781 4.976562 -12.34375 4.90625 -13.1875 C 4.382812 -11.46875 3.503906 -9.40625 2.265625 -7 C 2.765625 -6.738281 3.015625 -6.359375 3.015625 -5.859375 C 3.015625 -5.441406 2.875 -5.066406 2.59375 -4.734375 C 2.320312 -4.410156 1.984375 -4.25 1.578125 -4.25 C 1.117188 -4.25 0.820312 -4.394531 0.6875 -4.6875 C 0.6875 -3.894531 0.84375 -3.3125 1.15625 -2.9375 C 1.476562 -2.570312 1.988281 -2.390625 2.6875 -2.390625 Z M 2.6875 -2.390625"></path></g></g></g><g fill-opacity="1" fill="#ffbd59"><g transform="translate(143.361921, 51.287951)"><g></g></g></g><g fill-opacity="1" fill="#ffbd59"><g transform="translate(150.463903, 51.287951)"><g><path d="M 7.53125 -20.8125 L 12.375 -21.46875 L 10.046875 -10.546875 C 11.097656 -10.628906 12.0625 -11.082031 12.9375 -11.90625 C 13.820312 -12.738281 14.515625 -13.765625 15.015625 -14.984375 C 15.523438 -16.210938 15.78125 -17.414062 15.78125 -18.59375 C 15.78125 -19.90625 15.441406 -20.972656 14.765625 -21.796875 C 14.085938 -22.628906 13.070312 -23.046875 11.71875 -23.046875 C 9.050781 -23.046875 6.96875 -22.347656 5.46875 -20.953125 C 3.976562 -19.554688 3.234375 -17.601562 3.234375 -15.09375 C 3.234375 -14.28125 3.3125 -13.71875 3.46875 -13.40625 C 3.625 -13.09375 3.703125 -12.910156 3.703125 -12.859375 C 2.523438 -12.859375 1.644531 -13.101562 1.0625 -13.59375 C 0.488281 -14.09375 0.203125 -14.910156 0.203125 -16.046875 C 0.203125 -17.441406 0.773438 -18.796875 1.921875 -20.109375 C 3.066406 -21.429688 4.53125 -22.5 6.3125 -23.3125 C 8.101562 -24.132812 9.894531 -24.546875 11.6875 -24.546875 C 13.40625 -24.546875 14.84375 -24.25 16 -23.65625 C 17.15625 -23.070312 18.007812 -22.296875 18.5625 -21.328125 C 19.125 -20.359375 19.40625 -19.285156 19.40625 -18.109375 C 19.40625 -16.679688 19.019531 -15.289062 18.25 -13.9375 C 17.476562 -12.59375 16.367188 -11.488281 14.921875 -10.625 C 13.484375 -9.757812 11.828125 -9.328125 9.953125 -9.328125 L 9.78125 -9.328125 L 7.796875 0 L 3.078125 0 Z M 7.53125 -20.8125"></path></g></g></g><g fill-opacity="1" fill="#ffbd59"><g transform="translate(169.217055, 51.287951)"><g><path d="M 4.6875 0.203125 C 3.070312 0.203125 1.816406 -0.21875 0.921875 -1.0625 C 0.0234375 -1.90625 -0.421875 -3.222656 -0.421875 -5.015625 C -0.421875 -6.515625 -0.128906 -8.171875 0.453125 -9.984375 C 1.046875 -11.796875 2.003906 -13.359375 3.328125 -14.671875 C 4.660156 -15.992188 6.351562 -16.65625 8.40625 -16.65625 C 10.8125 -16.65625 12.015625 -15.609375 12.015625 -13.515625 C 12.015625 -12.296875 11.664062 -11.171875 10.96875 -10.140625 C 10.269531 -9.117188 9.34375 -8.296875 8.1875 -7.671875 C 7.03125 -7.054688 5.796875 -6.703125 4.484375 -6.609375 C 4.441406 -5.953125 4.421875 -5.515625 4.421875 -5.296875 C 4.421875 -4.234375 4.601562 -3.507812 4.96875 -3.125 C 5.34375 -2.738281 5.945312 -2.546875 6.78125 -2.546875 C 7.957031 -2.546875 8.960938 -2.816406 9.796875 -3.359375 C 10.640625 -3.910156 11.5625 -4.742188 12.5625 -5.859375 L 13.6875 -5.859375 C 11.257812 -1.816406 8.257812 0.203125 4.6875 0.203125 Z M 4.75 -8.1875 C 5.550781 -8.226562 6.316406 -8.507812 7.046875 -9.03125 C 7.785156 -9.5625 8.378906 -10.226562 8.828125 -11.03125 C 9.273438 -11.84375 9.5 -12.691406 9.5 -13.578125 C 9.5 -14.472656 9.222656 -14.921875 8.671875 -14.921875 C 7.890625 -14.921875 7.117188 -14.234375 6.359375 -12.859375 C 5.609375 -11.484375 5.070312 -9.925781 4.75 -8.1875 Z M 4.75 -8.1875"></path></g></g></g><g fill-opacity="1" fill="#ffbd59"><g transform="translate(181.784614, 51.287951)"><g><path d="M 2.21875 -16.375 L 6.9375 -16.375 L 6.515625 -14.34375 C 7.253906 -14.988281 7.921875 -15.488281 8.515625 -15.84375 C 9.117188 -16.195312 9.769531 -16.375 10.46875 -16.375 C 11.164062 -16.375 11.71875 -16.128906 12.125 -15.640625 C 12.53125 -15.160156 12.734375 -14.582031 12.734375 -13.90625 C 12.734375 -13.28125 12.523438 -12.722656 12.109375 -12.234375 C 11.691406 -11.753906 11.113281 -11.515625 10.375 -11.515625 C 9.894531 -11.515625 9.570312 -11.628906 9.40625 -11.859375 C 9.25 -12.085938 9.125 -12.421875 9.03125 -12.859375 C 8.96875 -13.148438 8.898438 -13.359375 8.828125 -13.484375 C 8.765625 -13.617188 8.648438 -13.6875 8.484375 -13.6875 C 8.023438 -13.6875 7.632812 -13.59375 7.3125 -13.40625 C 7 -13.21875 6.59375 -12.894531 6.09375 -12.4375 L 3.46875 0 L -1.25 0 Z M 2.21875 -16.375"></path></g></g></g><g fill-opacity="1" fill="#ffbd59"><g transform="translate(194.090345, 51.287951)"><g><path d="M -2.953125 8.1875 C -3.972656 8.1875 -4.867188 7.851562 -5.640625 7.1875 C -6.421875 6.519531 -6.8125 5.671875 -6.8125 4.640625 C -6.8125 3.703125 -6.570312 2.925781 -6.09375 2.3125 C -5.613281 1.707031 -4.988281 1.222656 -4.21875 0.859375 C -3.457031 0.503906 -2.441406 0.128906 -1.171875 -0.265625 L 2.78125 -18.953125 C 3.21875 -21.046875 3.988281 -22.492188 5.09375 -23.296875 C 6.195312 -24.109375 7.410156 -24.515625 8.734375 -24.515625 C 9.765625 -24.515625 10.664062 -24.179688 11.4375 -23.515625 C 12.21875 -22.847656 12.609375 -22.003906 12.609375 -20.984375 C 12.609375 -20.484375 12.570312 -20.035156 12.5 -19.640625 L 10.96875 -19.640625 C 11.007812 -20.117188 11.03125 -20.414062 11.03125 -20.53125 C 11.03125 -20.875 10.910156 -21.144531 10.671875 -21.34375 C 10.429688 -21.539062 10.132812 -21.640625 9.78125 -21.640625 C 9.320312 -21.640625 8.875 -21.4375 8.4375 -21.03125 C 8.007812 -20.625 7.695312 -19.929688 7.5 -18.953125 L 6.9375 -16.375 L 9.328125 -16.375 L 9.09375 -15.0625 L 6.671875 -15.0625 L 2.90625 2.625 C 2.476562 4.738281 1.726562 6.191406 0.65625 6.984375 C -0.414062 7.785156 -1.617188 8.1875 -2.953125 8.1875 Z M -3.703125 5.265625 C -2.828125 5.265625 -2.203125 4.414062 -1.828125 2.71875 L -1.40625 0.8125 C -2.5625 1.207031 -3.453125 1.660156 -4.078125 2.171875 C -4.703125 2.691406 -5.015625 3.363281 -5.015625 4.1875 C -5.015625 4.445312 -4.878906 4.691406 -4.609375 4.921875 C -4.347656 5.148438 -4.046875 5.265625 -3.703125 5.265625 Z M -3.703125 5.265625"></path></g></g></g><g fill-opacity="1" fill="#ffbd59"><g transform="translate(202.828732, 51.287951)"><g><path d="M 3.234375 0.203125 C 2.191406 0.203125 1.347656 -0.125 0.703125 -0.78125 C 0.0546875 -1.4375 -0.265625 -2.421875 -0.265625 -3.734375 C -0.265625 -4.273438 -0.175781 -4.984375 0 -5.859375 L 2.21875 -16.375 L 6.9375 -16.375 L 4.578125 -5.234375 C 4.515625 -4.910156 4.484375 -4.609375 4.484375 -4.328125 C 4.484375 -3.429688 4.8125 -2.984375 5.46875 -2.984375 C 6.082031 -2.984375 6.601562 -3.238281 7.03125 -3.75 C 7.46875 -4.257812 7.816406 -4.960938 8.078125 -5.859375 L 10.3125 -16.375 L 15.03125 -16.375 L 12.671875 -5.234375 C 12.578125 -4.910156 12.53125 -4.5625 12.53125 -4.1875 C 12.53125 -3.75 12.632812 -3.4375 12.84375 -3.25 C 13.050781 -3.070312 13.394531 -2.984375 13.875 -2.984375 C 14.488281 -2.984375 15.019531 -3.242188 15.46875 -3.765625 C 15.914062 -4.285156 16.269531 -4.984375 16.53125 -5.859375 L 17.90625 -5.859375 C 17.09375 -3.503906 16.09375 -1.90625 14.90625 -1.0625 C 13.71875 -0.21875 12.523438 0.203125 11.328125 0.203125 C 10.390625 0.203125 9.640625 -0.0546875 9.078125 -0.578125 C 8.523438 -1.109375 8.191406 -1.882812 8.078125 -2.90625 C 7.335938 -1.707031 6.554688 -0.890625 5.734375 -0.453125 C 4.921875 -0.015625 4.085938 0.203125 3.234375 0.203125 Z M 3.234375 0.203125"></path></g></g></g><g fill-opacity="1" fill="#ffbd59"><g transform="translate(219.356383, 51.287951)"><g><path d="M 19.90625 0.203125 C 18.570312 0.203125 17.59375 -0.148438 16.96875 -0.859375 C 16.351562 -1.578125 16.046875 -2.457031 16.046875 -3.5 C 16.046875 -3.957031 16.097656 -4.472656 16.203125 -5.046875 C 16.316406 -5.628906 16.429688 -6.191406 16.546875 -6.734375 C 16.671875 -7.285156 16.753906 -7.640625 16.796875 -7.796875 C 16.960938 -8.554688 17.125 -9.304688 17.28125 -10.046875 C 17.4375 -10.785156 17.515625 -11.382812 17.515625 -11.84375 C 17.515625 -12.957031 17.117188 -13.515625 16.328125 -13.515625 C 15.765625 -13.515625 15.265625 -13.234375 14.828125 -12.671875 C 14.390625 -12.117188 14.039062 -11.394531 13.78125 -10.5 L 11.5625 0 L 6.84375 0 L 9.234375 -11.296875 C 9.296875 -11.554688 9.328125 -11.828125 9.328125 -12.109375 C 9.328125 -13.066406 9 -13.546875 8.34375 -13.546875 C 7.738281 -13.546875 7.210938 -13.265625 6.765625 -12.703125 C 6.316406 -12.148438 5.960938 -11.414062 5.703125 -10.5 L 3.46875 0 L -1.25 0 L 2.21875 -16.375 L 6.9375 -16.375 L 6.578125 -14.671875 C 7.691406 -15.910156 9.023438 -16.53125 10.578125 -16.53125 C 12.492188 -16.53125 13.613281 -15.59375 13.9375 -13.71875 C 15.144531 -15.570312 16.664062 -16.5 18.5 -16.5 C 19.613281 -16.5 20.492188 -16.191406 21.140625 -15.578125 C 21.796875 -14.972656 22.125 -14.046875 22.125 -12.796875 C 22.125 -12.160156 22.046875 -11.457031 21.890625 -10.6875 C 21.742188 -9.914062 21.53125 -8.972656 21.25 -7.859375 C 21.070312 -7.179688 20.910156 -6.519531 20.765625 -5.875 C 20.628906 -5.226562 20.5625 -4.722656 20.5625 -4.359375 C 20.5625 -3.921875 20.65625 -3.582031 20.84375 -3.34375 C 21.039062 -3.101562 21.378906 -2.984375 21.859375 -2.984375 C 22.515625 -2.984375 23.039062 -3.21875 23.4375 -3.6875 C 23.832031 -4.15625 24.222656 -4.878906 24.609375 -5.859375 L 25.984375 -5.859375 C 25.179688 -3.460938 24.25 -1.851562 23.1875 -1.03125 C 22.132812 -0.207031 21.039062 0.203125 19.90625 0.203125 Z M 19.90625 0.203125"></path></g></g></g><g fill-opacity="1" fill="#ffbd59"><g transform="translate(243.96786, 51.287951)"><g><path d="M 4.6875 0.203125 C 3.070312 0.203125 1.816406 -0.21875 0.921875 -1.0625 C 0.0234375 -1.90625 -0.421875 -3.222656 -0.421875 -5.015625 C -0.421875 -6.515625 -0.128906 -8.171875 0.453125 -9.984375 C 1.046875 -11.796875 2.003906 -13.359375 3.328125 -14.671875 C 4.660156 -15.992188 6.351562 -16.65625 8.40625 -16.65625 C 10.8125 -16.65625 12.015625 -15.609375 12.015625 -13.515625 C 12.015625 -12.296875 11.664062 -11.171875 10.96875 -10.140625 C 10.269531 -9.117188 9.34375 -8.296875 8.1875 -7.671875 C 7.03125 -7.054688 5.796875 -6.703125 4.484375 -6.609375 C 4.441406 -5.953125 4.421875 -5.515625 4.421875 -5.296875 C 4.421875 -4.234375 4.601562 -3.507812 4.96875 -3.125 C 5.34375 -2.738281 5.945312 -2.546875 6.78125 -2.546875 C 7.957031 -2.546875 8.960938 -2.816406 9.796875 -3.359375 C 10.640625 -3.910156 11.5625 -4.742188 12.5625 -5.859375 L 13.6875 -5.859375 C 11.257812 -1.816406 8.257812 0.203125 4.6875 0.203125 Z M 4.75 -8.1875 C 5.550781 -8.226562 6.316406 -8.507812 7.046875 -9.03125 C 7.785156 -9.5625 8.378906 -10.226562 8.828125 -11.03125 C 9.273438 -11.84375 9.5 -12.691406 9.5 -13.578125 C 9.5 -14.472656 9.222656 -14.921875 8.671875 -14.921875 C 7.890625 -14.921875 7.117188 -14.234375 6.359375 -12.859375 C 5.609375 -11.484375 5.070312 -9.925781 4.75 -8.1875 Z M 4.75 -8.1875"></path></g></g></g><path fill-rule="nonzero" fill-opacity="1" d="M 38.660156 37.855469 C 38.292969 37.910156 37.933594 37.96875 37.570312 38.019531 C 37.027344 38.101562 36.722656 38.425781 36.632812 38.957031 C 36.570312 39.332031 36.519531 39.710938 36.484375 40.09375 C 36.441406 40.542969 36.425781 40.996094 36.378906 41.449219 C 36.363281 41.261719 36.34375 41.078125 36.324219 40.894531 C 36.269531 40.324219 36.21875 39.75 36.160156 39.183594 C 36.152344 39.113281 36.132812 39.046875 36.121094 38.976562 C 36.035156 38.4375 35.714844 38.128906 35.183594 38.039062 C 34.925781 37.992188 34.667969 37.957031 34.410156 37.914062 C 34.316406 37.902344 34.226562 37.882812 34.09375 37.859375 C 34.5 37.808594 34.867188 37.765625 35.230469 37.714844 C 35.753906 37.648438 36.058594 37.335938 36.140625 36.824219 C 36.21875 36.351562 36.265625 35.878906 36.320312 35.40625 C 36.351562 35.128906 36.367188 34.855469 36.390625 34.546875 C 36.441406 35.082031 36.476562 35.585938 36.535156 36.085938 C 36.566406 36.367188 36.621094 36.652344 36.679688 36.933594 C 36.769531 37.375 37.054688 37.625 37.496094 37.699219 C 37.878906 37.761719 38.269531 37.800781 38.660156 37.855469 Z M 38.660156 37.855469" fill="#ffffff"></path><g clip-path="url(#50d77c6f34)"><path fill-rule="nonzero" fill-opacity="1" d="M 39.574219 33.410156 C 39.625 33.871094 39.660156 34.292969 39.71875 34.714844 C 39.816406 35.40625 40.003906 35.511719 40.578125 35.597656 C 40.714844 35.617188 40.851562 35.628906 40.996094 35.683594 C 40.945312 35.699219 40.898438 35.714844 40.847656 35.722656 C 40.640625 35.761719 40.433594 35.785156 40.234375 35.835938 C 40.019531 35.894531 39.863281 36.039062 39.808594 36.257812 C 39.746094 36.492188 39.703125 36.730469 39.667969 36.972656 C 39.640625 37.160156 39.625 37.351562 39.617188 37.542969 C 39.609375 37.730469 39.613281 37.921875 39.613281 38.113281 C 39.597656 38.113281 39.582031 38.117188 39.5625 38.117188 C 39.527344 37.714844 39.496094 37.316406 39.453125 36.917969 C 39.429688 36.71875 39.394531 36.523438 39.347656 36.328125 C 39.285156 36.070312 39.113281 35.902344 38.855469 35.839844 C 38.605469 35.777344 38.347656 35.742188 38.035156 35.683594 C 38.164062 35.65625 38.242188 35.640625 38.324219 35.628906 C 38.46875 35.609375 38.617188 35.59375 38.761719 35.570312 C 39.113281 35.515625 39.328125 35.316406 39.394531 34.96875 C 39.441406 34.703125 39.476562 34.4375 39.507812 34.171875 C 39.535156 33.929688 39.550781 33.6875 39.574219 33.410156 Z M 39.574219 33.410156" fill="#ffffff"></path></g><g clip-path="url(#5a3cd13b7d)"><path fill-rule="nonzero" fill-opacity="1" d="M 32.28125 40.09375 C 32.449219 40.066406 32.621094 40.042969 32.789062 40.011719 C 33.03125 39.964844 33.179688 39.8125 33.222656 39.582031 C 33.277344 39.300781 33.308594 39.015625 33.34375 38.730469 C 33.355469 38.636719 33.355469 38.542969 33.394531 38.445312 C 33.410156 38.5625 33.421875 38.679688 33.441406 38.796875 C 33.476562 39.046875 33.503906 39.296875 33.546875 39.542969 C 33.59375 39.8125 33.753906 39.976562 34.03125 40.015625 C 34.1875 40.039062 34.34375 40.0625 34.503906 40.121094 C 34.449219 40.132812 34.394531 40.152344 34.339844 40.160156 C 34.289062 40.171875 34.238281 40.171875 34.183594 40.179688 C 33.71875 40.253906 33.558594 40.417969 33.5 40.890625 C 33.472656 41.078125 33.457031 41.269531 33.4375 41.460938 C 33.417969 41.648438 33.402344 41.839844 33.367188 42.03125 C 33.339844 41.730469 33.320312 41.429688 33.289062 41.128906 C 33.273438 40.984375 33.253906 40.835938 33.21875 40.691406 C 33.160156 40.441406 33.003906 40.28125 32.746094 40.226562 C 32.589844 40.195312 32.429688 40.167969 32.273438 40.136719 C 32.277344 40.121094 32.277344 40.109375 32.28125 40.09375 Z M 32.28125 40.09375" fill="#ffffff"></path></g><g clip-path="url(#f89cbadc87)"><path fill-rule="nonzero" fill-opacity="1" d="M 43.621094 39.96875 C 43.570312 39.859375 43.519531 39.746094 43.46875 39.636719 C 43.597656 39.878906 43.804688 39.988281 44.066406 40.015625 C 44.21875 40.035156 44.371094 40.066406 44.480469 40.085938 C 44.3125 40.109375 44.101562 40.140625 43.890625 40.171875 C 43.886719 40.167969 43.882812 40.164062 43.878906 40.15625 C 43.886719 40.160156 43.890625 40.164062 43.898438 40.167969 C 43.867188 40.1875 43.832031 40.207031 43.800781 40.230469 C 43.800781 40.230469 43.804688 40.234375 43.804688 40.234375 C 43.628906 40.164062 43.464844 40.21875 43.40625 40.417969 C 43.339844 40.65625 43.320312 40.910156 43.292969 41.15625 C 43.277344 41.289062 43.289062 41.429688 43.289062 41.5625 C 43.269531 41.566406 43.25 41.566406 43.226562 41.566406 C 43.210938 41.414062 43.191406 41.257812 43.171875 41.105469 C 43.152344 40.941406 43.136719 40.777344 43.113281 40.613281 C 43.074219 40.375 42.941406 40.21875 42.695312 40.179688 C 42.5 40.148438 42.308594 40.121094 42.09375 40.085938 C 42.3125 40.058594 42.507812 40.03125 42.707031 40.003906 C 42.933594 39.976562 43.070312 39.847656 43.109375 39.625 C 43.160156 39.328125 43.195312 39.023438 43.261719 38.71875 C 43.273438 38.863281 43.28125 39.007812 43.300781 39.152344 C 43.320312 39.332031 43.34375 39.511719 43.378906 39.6875 C 43.40625 39.820312 43.484375 39.925781 43.625 39.964844 C 43.648438 39.96875 43.667969 39.976562 43.644531 39.96875 C 43.664062 39.96875 43.644531 39.96875 43.621094 39.96875 Z M 43.621094 39.96875" fill="#ffffff"></path></g><g clip-path="url(#58e0f04bf7)"><path fill-rule="nonzero" fill-opacity="1" d="M 17.542969 32.921875 C 13.304688 34.042969 10.179688 37.902344 10.179688 42.492188 C 10.179688 47.082031 13.304688 50.945312 17.542969 52.0625 C 12.546875 51.730469 8.59375 47.574219 8.59375 42.492188 C 8.59375 37.410156 12.546875 33.253906 17.542969 32.921875 Z M 17.542969 32.921875" fill="#ffffff"></path></g><path fill-rule="nonzero" fill-opacity="1" d="M 17.378906 31.707031 L 24.058594 31.707031 L 24.058594 34.082031 L 17.378906 34.082031 Z M 17.378906 31.707031" fill="#ffbd59"></path><g clip-path="url(#133414c973)"><path fill-rule="nonzero" fill-opacity="1" d="M 14.464844 26.292969 L 26.972656 26.292969 L 26.972656 31.054688 L 14.464844 31.054688 Z M 14.464844 26.292969" fill="#ffbd59"></path></g><g clip-path="url(#f5cc1358e8)"><path fill-rule="nonzero" fill-opacity="1" d="M 8.292969 34.738281 L 8.292969 52.714844 L 33.144531 52.714844 L 33.144531 34.738281 Z M 25.644531 49.609375 C 25.644531 49.699219 25.613281 49.777344 25.550781 49.84375 C 25.484375 49.90625 25.410156 49.9375 25.320312 49.9375 L 16.117188 49.9375 C 16.027344 49.9375 15.949219 49.90625 15.886719 49.84375 C 15.824219 49.777344 15.789062 49.699219 15.789062 49.609375 L 15.789062 37.84375 C 15.789062 37.753906 15.824219 37.675781 15.886719 37.613281 C 15.949219 37.546875 16.027344 37.515625 16.117188 37.515625 L 25.320312 37.515625 C 25.410156 37.515625 25.484375 37.546875 25.550781 37.613281 C 25.613281 37.675781 25.644531 37.753906 25.644531 37.84375 Z M 25.644531 49.609375" fill="#ffbd59"></path></g><path fill-rule="nonzero" fill-opacity="1" d="M 16.445312 38.171875 L 24.992188 38.171875 L 24.992188 49.28125 L 16.445312 49.28125 Z M 16.445312 38.171875" fill="#ffbd59"></path><g clip-path="url(#90336e1473)"><path fill-rule="nonzero" fill-opacity="1" d="M 27.25 21.59375 C 27.167969 21.769531 27.085938 21.917969 26.886719 21.980469 C 26.671875 22.054688 26.382812 21.839844 26.671875 21.707031 C 26.808594 21.640625 26.722656 21.472656 26.605469 21.453125 C 26.398438 21.425781 26.234375 21.601562 26.207031 21.796875 C 26.195312 21.867188 26.199219 21.933594 26.222656 21.992188 C 25.617188 22.4375 25.089844 22.933594 24.558594 23.464844 C 24.328125 23.695312 24.074219 23.992188 23.734375 24.050781 C 23.410156 24.105469 23.207031 23.867188 23.148438 23.570312 C 23.074219 23.222656 23.164062 22.84375 23.203125 22.5 C 23.246094 22.125 23.289062 21.746094 23.335938 21.371094 C 23.417969 20.632812 23.445312 19.882812 23.460938 19.136719 C 23.585938 19.09375 23.695312 19.015625 23.789062 18.90625 C 23.933594 18.742188 24.007812 18.507812 23.960938 18.285156 C 23.90625 18.046875 23.703125 17.835938 23.449219 17.953125 C 23.367188 17.988281 23.351562 18.089844 23.363281 18.164062 C 23.398438 18.375 23.621094 18.453125 23.453125 18.683594 C 23.351562 18.824219 23.195312 18.851562 23.054688 18.804688 C 23.054688 18.785156 23.046875 18.777344 23.042969 18.757812 C 22.964844 18.59375 22.78125 18.535156 22.625 18.628906 C 22.523438 18.6875 22.523438 18.8125 22.59375 18.902344 C 22.652344 18.980469 22.726562 19.039062 22.796875 19.082031 C 22.636719 19.488281 22.421875 19.855469 22.246094 20.253906 C 22.078125 20.636719 21.957031 21.046875 21.820312 21.449219 C 21.6875 21.832031 21.566406 22.21875 21.421875 22.597656 C 21.3125 22.894531 21.054688 23.375 20.660156 23.246094 C 20.390625 23.15625 20.25 22.8125 20.15625 22.570312 C 20 22.183594 19.84375 21.796875 19.703125 21.398438 C 19.429688 20.613281 19.238281 19.808594 19.035156 19 C 19.035156 18.996094 19.03125 18.984375 19.023438 18.980469 C 19.117188 18.90625 19.1875 18.804688 19.226562 18.671875 C 19.316406 18.363281 19.148438 17.988281 18.808594 17.933594 C 18.480469 17.886719 18.199219 18.285156 18.46875 18.539062 C 18.574219 18.636719 18.761719 18.570312 18.777344 18.441406 C 18.777344 18.441406 18.78125 18.445312 18.78125 18.445312 C 18.789062 18.480469 18.804688 18.5 18.804688 18.539062 C 18.808594 18.605469 18.789062 18.683594 18.738281 18.726562 C 18.660156 18.796875 18.558594 18.777344 18.480469 18.714844 C 18.449219 18.617188 18.402344 18.523438 18.34375 18.445312 C 18.253906 18.332031 18.050781 18.359375 18.050781 18.523438 C 18.050781 18.8125 18.234375 19.007812 18.453125 19.070312 C 18.457031 19.117188 18.464844 19.160156 18.464844 19.210938 C 18.464844 19.253906 18.523438 19.253906 18.53125 19.210938 C 18.535156 19.171875 18.535156 19.132812 18.535156 19.089844 C 18.546875 19.089844 18.550781 19.09375 18.5625 19.09375 C 18.558594 19.105469 18.550781 19.117188 18.550781 19.125 C 18.511719 19.890625 18.511719 20.636719 18.390625 21.394531 C 18.292969 22.015625 18.273438 22.757812 17.984375 23.332031 C 17.625 24.058594 16.960938 23.546875 16.480469 23.226562 C 15.925781 22.867188 15.453125 22.421875 15 21.949219 C 15.175781 21.691406 15.140625 21.324219 14.863281 21.148438 C 14.742188 21.070312 14.582031 21.039062 14.4375 21.074219 C 14.242188 21.132812 14.179688 21.269531 14.1875 21.460938 C 14.191406 21.609375 14.40625 21.742188 14.519531 21.597656 C 14.558594 21.546875 14.515625 21.554688 14.546875 21.558594 C 14.582031 21.566406 14.609375 21.574219 14.625 21.601562 C 14.664062 21.675781 14.605469 21.777344 14.554688 21.824219 C 14.460938 21.90625 14.34375 21.910156 14.253906 21.871094 C 14.207031 21.667969 14.121094 21.5 13.929688 21.398438 C 13.820312 21.34375 13.664062 21.410156 13.671875 21.546875 C 13.679688 21.964844 14.011719 22.234375 14.363281 22.257812 C 14.363281 22.269531 14.367188 22.285156 14.378906 22.296875 C 14.667969 22.683594 14.890625 23.109375 15.152344 23.515625 C 15.40625 23.910156 15.640625 24.320312 15.855469 24.738281 C 16.0625 25.15625 16.207031 25.613281 16.421875 26.027344 C 16.570312 26.308594 16.667969 26.601562 16.765625 26.894531 C 16.542969 26.972656 16.324219 27.054688 16.113281 27.15625 C 16.042969 27.1875 16.082031 27.300781 16.152344 27.300781 C 16.398438 27.296875 16.652344 27.285156 16.898438 27.273438 C 16.914062 27.324219 16.9375 27.375 16.953125 27.421875 C 16.980469 27.488281 17.082031 27.484375 17.082031 27.40625 C 17.082031 27.359375 17.082031 27.308594 17.074219 27.265625 C 18.277344 27.191406 19.480469 27.042969 20.6875 27.050781 C 21.449219 27.050781 22.214844 27.097656 22.972656 27.1875 C 23.324219 27.226562 23.695312 27.335938 24.042969 27.3125 C 24.121094 27.308594 24.203125 27.308594 24.277344 27.3125 C 24.269531 27.390625 24.261719 27.472656 24.25 27.550781 C 24.238281 27.617188 24.355469 27.632812 24.371094 27.566406 C 24.386719 27.484375 24.410156 27.40625 24.4375 27.324219 C 24.703125 27.347656 24.964844 27.394531 25.226562 27.378906 C 25.355469 27.375 25.414062 27.199219 25.292969 27.132812 C 25.074219 27.011719 24.832031 26.953125 24.589844 26.878906 C 24.683594 26.632812 24.792969 26.398438 24.898438 26.160156 C 25.097656 25.710938 25.246094 25.25 25.460938 24.804688 C 25.667969 24.359375 25.910156 23.929688 26.179688 23.519531 C 26.414062 23.152344 26.574219 22.738281 26.808594 22.371094 C 27.179688 22.367188 27.539062 22.082031 27.671875 21.757812 C 27.777344 21.527344 27.359375 21.351562 27.25 21.59375 Z M 25.726562 23.265625 C 25.441406 23.707031 25.195312 24.160156 24.976562 24.632812 C 24.773438 25.078125 24.554688 25.550781 24.460938 26.027344 C 24.410156 26.285156 24.378906 26.550781 24.351562 26.808594 C 24.304688 26.792969 24.269531 26.777344 24.222656 26.757812 C 23.871094 26.605469 23.472656 26.589844 23.09375 26.539062 C 22.300781 26.445312 21.5 26.398438 20.703125 26.390625 C 19.496094 26.390625 18.214844 26.472656 17.035156 26.824219 C 16.992188 26.546875 16.925781 26.265625 16.886719 25.972656 C 16.820312 25.484375 16.574219 25.003906 16.359375 24.5625 C 16.136719 24.113281 15.882812 23.683594 15.585938 23.273438 C 15.304688 22.886719 14.945312 22.5625 14.59375 22.238281 C 14.679688 22.21875 14.761719 22.179688 14.835938 22.125 C 15.234375 22.734375 15.769531 23.304688 16.351562 23.734375 C 16.910156 24.144531 17.679688 24.511719 18.234375 23.882812 C 18.441406 23.644531 18.558594 23.332031 18.632812 23.03125 C 18.734375 22.625 18.808594 22.191406 18.832031 21.773438 C 18.859375 21.316406 18.847656 20.855469 18.828125 20.402344 C 18.808594 19.972656 18.789062 19.527344 18.699219 19.109375 C 18.699219 19.105469 18.699219 19.105469 18.695312 19.097656 C 18.761719 19.09375 18.828125 19.078125 18.890625 19.050781 C 18.957031 20.015625 19.175781 20.960938 19.417969 21.898438 C 19.582031 22.542969 19.84375 23.605469 20.628906 23.746094 C 21.578125 23.910156 21.902344 22.765625 22.132812 22.09375 C 22.296875 21.609375 22.464844 21.125 22.621094 20.636719 C 22.773438 20.148438 22.828125 19.636719 22.972656 19.144531 C 23.046875 19.164062 23.132812 19.175781 23.214844 19.171875 C 23.027344 20.015625 22.871094 20.867188 22.769531 21.734375 C 22.714844 22.191406 22.636719 22.65625 22.609375 23.113281 C 22.585938 23.464844 22.625 23.832031 22.828125 24.132812 C 23.269531 24.78125 24.054688 24.601562 24.570312 24.160156 C 25.234375 23.589844 25.832031 22.914062 26.355469 22.210938 C 26.390625 22.25 26.4375 22.277344 26.480469 22.304688 C 26.511719 22.324219 26.546875 22.339844 26.578125 22.351562 C 26.277344 22.640625 25.964844 22.90625 25.726562 23.265625 Z M 25.726562 23.265625" fill="#ffbd59"></path></g><g fill-opacity="1" fill="#ffffff"><g transform="translate(18.108392, 46.345528)"><g><path d="M 4.75 0 L 3.546875 0 L 1.671875 -3.390625 L 1.671875 0 L 0.484375 0 L 0.484375 -5.421875 L 1.671875 -5.421875 L 3.546875 -2.046875 L 3.546875 -5.421875 L 4.75 -5.421875 Z M 4.75 0"></path></g></g></g></svg>